<svg width="500" height="500" viewBox="0 0 500 500" fill="none" xmlns="http://www.w3.org/2000/svg">
<path d="M364.213 196.247C367.754 188.306 374.127 167.307 371.294 146.837C368.462 126.367 329.398 89.4854 310.221 73.6034V30.3692C256.405 0.722961 196.925 18.0166 173.912 30.3692V93.897L127 211.247L136.736 290.657L160.635 314.479M364.213 196.247C373.655 219.188 379.614 265.245 327.923 265.951M364.213 196.247L339.43 152.131L307.002 180.365M327.923 265.951C330.283 281.245 324.206 309.715 281.012 301.245M327.923 265.951V226.247L307.002 180.365M281.012 301.245C272.16 328.597 246.315 354.184 227.904 301.245V289.774M281.012 301.245V241.246L263.309 206.394M307.002 180.365L296.944 158.307C285.437 164.778 262.601 183.454 263.309 206.394M263.309 206.394L245.607 171.542C204.537 203.306 216.693 238.893 227.904 252.716V289.774M203.121 191.836C202.413 235.599 191.024 250.658 185.418 252.716C195.911 261.037 203.031 269.691 207.583 278.304C212.181 287.004 214.159 295.661 214.347 303.892M160.635 314.479L196.04 350.655C201.517 344.74 207.497 335.696 211.087 324.868M160.635 314.479V444.182C167.052 493.592 202.236 505.945 211.087 444.182V324.868M211.087 324.868C213.226 318.415 214.517 311.328 214.347 303.892M214.347 303.892C215.916 300.068 220.823 291.892 227.904 289.774" stroke="white" stroke-width="11"/>
</svg>
